<svg enable-background="new 0 0 24 24" height="512" viewBox="0 0 24 24" width="512" xmlns="http://www.w3.org/2000/svg"><g id="_x31__x2C_5"><g><path d="m10.75 18h-2.5c-.965 0-1.75-.785-1.75-1.75v-2.5c0-.414.336-.75.75-.75s.75.336.75.75v2.5c0 .138.112.25.25.25h2.5c.414 0 .75.336.75.75s-.336.75-.75.75z"/></g><g><path d="m16.75 21h-2.5c-.965 0-1.75-.785-1.75-1.75v-4.5c0-.965.785-1.75 1.75-1.75h2.5c.414 0 .75.336.75.75s-.336.75-.75.75h-2.5c-.138 0-.25.112-.25.25v4.5c0 .138.112.25.25.25h1.75v-1.5h-.75c-.414 0-.75-.336-.75-.75s.336-.75.75-.75h1.5c.414 0 .75.336.75.75v3c0 .414-.336.75-.75.75z"/></g><g><path d="m11.25 4c-.205 0-.409-.084-.558-.248l-1.692-1.881-1.692 1.881c-.279.308-.751.333-1.06.056-.308-.278-.333-.751-.056-1.06l2.25-2.5c.285-.316.83-.316 1.115 0l2.25 2.5c.277.309.252.782-.056 1.06-.143.129-.322.192-.501.192z"/></g><g><path d="m15 11c-.213 0-.415-.09-.558-.248l-2.25-2.5c-.277-.309-.252-.782.056-1.06s.781-.252 1.06.056l1.692 1.881 1.692-1.881c.278-.307.752-.332 1.06-.056.308.277.333.751.056 1.06l-2.25 2.5c-.143.158-.345.248-.558.248z"/></g><g><path d="m10.75 13c-.414 0-.75.336-.75.75v6.5c0 .414.336.75.75.75s.75-.336.75-.75v-6.5c0-.414-.336-.75-.75-.75z"/></g><g><path d="m9 0c-.414 0-.75.336-.75.75v9.5c0 .414.336.75.75.75s.75-.336.75-.75v-9.5c0-.414-.336-.75-.75-.75z"/></g><g><path d="m15 0c-.414 0-.75.336-.75.75v9.5c0 .414.336.75.75.75s.75-.336.75-.75v-9.5c0-.414-.336-.75-.75-.75z"/></g></g></svg>