<?xml version="1.0" encoding="iso-8859-1"?>
<!-- Generator: Adobe Illustrator 19.0.0, SVG Export Plug-In . SVG Version: 6.00 Build 0)  -->
<svg version="1.1" id="Capa_1" xmlns="http://www.w3.org/2000/svg" xmlns:xlink="http://www.w3.org/1999/xlink" x="0px" y="0px"
	 viewBox="0 0 490.692 490.692" style="enable-background:new 0 0 490.692 490.692;" xml:space="preserve">
<g>
	<g>
		<path d="M96.001,106.67H85.334v-96c0-4.8-3.2-9.003-7.829-10.283c-4.587-1.28-9.515,0.683-11.989,4.8l-64,106.667
			c-1.963,3.307-2.027,7.403-0.128,10.752c1.899,3.349,5.44,5.397,9.28,5.397h53.333v53.333c0,5.888,4.779,10.667,10.667,10.667
			s10.667-4.757,10.667-10.667v-53.333h10.667c5.888,0,10.667-4.779,10.667-10.667S101.889,106.67,96.001,106.67z M64.001,106.67
			H29.505l34.496-57.493V106.67z"/>
	</g>
</g>
<g>
	<g>
		<path d="M224.001,106.67h-42.667c-5.888,0-10.667,4.779-10.667,10.667s4.779,10.667,10.667,10.667h32v10.667
			c0,17.643-14.357,32-32,32s-32-14.357-32-32V53.337c0-17.643,14.357-32,32-32s32,14.357,32,32c0,5.888,4.779,10.667,10.667,10.667
			s10.667-4.779,10.667-10.667c0-29.397-23.936-53.333-53.333-53.333s-53.333,23.936-53.333,53.333v85.333
			c0,29.397,23.936,53.333,53.333,53.333s53.333-23.936,53.333-53.333v-21.333C234.668,111.449,229.889,106.67,224.001,106.67z"/>
	</g>
</g>
<g>
	<g>
		<path d="M217.75,260.462c-10.304-4.267-22.016-1.941-29.888,5.952L146.177,308.1c-11.733,11.712-18.176,27.285-18.176,43.84
			v111.296c0,15.125,12.309,27.435,27.435,27.435h51.819c15.125,0,27.435-12.309,27.435-27.435V285.806
			C234.668,274.67,228.012,264.729,217.75,260.462z"/>
	</g>
</g>
<g>
	<g>
		<path d="M89.75,388.462c-10.304-4.267-22.016-1.941-29.888,5.952l-49.429,49.429c-7.872,7.872-10.219,19.605-5.952,29.888
			s14.208,16.917,25.344,16.917h49.429c15.125,0,27.435-12.309,27.435-27.435v-49.429C106.668,402.67,100.012,392.729,89.75,388.462
			z"/>
	</g>
</g>
<g>
	<g>
		<path d="M473.75,4.462c-10.304-4.267-22.016-1.941-29.888,5.952L402.177,52.1c-11.733,11.712-18.176,27.285-18.176,43.84v367.296
			c0,15.125,12.309,27.435,27.435,27.435h51.819c15.125,0,27.435-12.309,27.435-27.435V29.806
			C490.668,18.67,484.012,8.729,473.75,4.462z"/>
	</g>
</g>
<g>
	<g>
		<path d="M345.75,132.462c-10.304-4.267-22.016-1.941-29.888,5.952L274.177,180.1c-11.712,11.712-18.176,27.285-18.176,43.861
			v239.296c0,15.125,12.309,27.435,27.435,27.435h51.819c15.125,0,27.435-12.309,27.435-27.435V157.806
			C362.668,146.67,356.012,136.729,345.75,132.462z"/>
	</g>
</g>
<g>
</g>
<g>
</g>
<g>
</g>
<g>
</g>
<g>
</g>
<g>
</g>
<g>
</g>
<g>
</g>
<g>
</g>
<g>
</g>
<g>
</g>
<g>
</g>
<g>
</g>
<g>
</g>
<g>
</g>
</svg>
